<svg version="1.0" xmlns="http://www.w3.org/2000/svg" width="682.667" height="682.667" viewBox="0 0 512 512"><path d="M74 22.6c-19.8 4.3-37.5 18.6-46.5 37.6-6.8 14.4-6.5 3-6.5 195.8 0 193.9-.4 181.5 6.8 196.5 9.1 18.8 26.7 32.7 46.7 37 10.5 2.2 352.5 2.2 363 0 20.2-4.3 37.9-18.5 47-37.7 6.8-14.4 6.5-3 6.5-195.8 0-193.8.4-181.4-6.8-196.5-9-18.6-26.8-32.8-46.8-37-10.1-2.1-353.5-2.1-363.4.1zM128 96v32H63.8l.4-22.3c.4-24.3.8-26.2 6.7-32.9 3.4-3.9 8.6-6.8 14.1-7.9 1.9-.4 12.4-.7 23.3-.8L128 64v32zm213 53v85H171V64h170v85zm91.1-82.8c5.3 2.3 10.4 7.3 13 12.6 2.2 4.4 2.3 6.1 2.7 26.9l.4 22.3H384V63.8l22.3.4c17.4.3 23 .7 25.8 2zM128 202.5V234H64v-63h64v31.5zm320 0V234h-64v-63h64v31.5zm-320 107V341H64v-63h64v31.5zM341 363v85H171V278h170v85zm107-53.5V341h-64v-63h64v31.5zM128 416.1v32.1l-22.2-.4c-20.9-.3-22.6-.4-27-2.6-2.6-1.3-6.1-4-7.9-5.9-5.9-6.8-6.3-8.7-6.7-33.1l-.4-22.2H128v32.1zm319.8-9.9c-.4 24.4-.8 26.3-6.7 33.1-1.8 1.9-5.3 4.6-7.9 5.9-4.4 2.2-6.1 2.3-26.9 2.6l-22.3.4V384h64.2l-.4 22.2z"/></svg>