<svg style="fill-rule:evenodd;clip-rule:evenodd;stroke-linejoin:round;stroke-miterlimit:1.41421" viewBox="0 0 24 24" xml:space="preserve" xmlns="http://www.w3.org/2000/svg"><path id="Artboard15" style="fill:none" d="M0 0h24v24H0z"/><path d="M2.093 9.075a3.995 3.995 0 0 1 3.562-3.716A63.535 63.535 0 0 1 12 5.048c2.209 0 4.34.109 6.345.312a3.994 3.994 0 0 1 3.562 3.715 45.969 45.969 0 0 1 0 5.85 3.995 3.995 0 0 1-3.562 3.716 63.535 63.535 0 0 1-6.345.311 63.23 63.23 0 0 1-6.345-.312 3.994 3.994 0 0 1-3.562-3.715 45.969 45.969 0 0 1 0-5.85Z" style="fill:red"/><path d="m15.055 12-4.909 2.995v-5.99L15.055 12Z" style="fill:#fff"/></svg>