<?xml version="1.0" standalone="no"?>
<!DOCTYPE svg PUBLIC "-//W3C//DTD SVG 20010904//EN"
 "http://www.w3.org/TR/2001/REC-SVG-20010904/DTD/svg10.dtd">
<svg version="1.0" xmlns="http://www.w3.org/2000/svg"
 width="512.000000pt" height="512.000000pt" viewBox="0 0 512.000000 512.000000"
 preserveAspectRatio="xMidYMid meet">
<metadata>
Created by potrace 1.14, written by Peter Selinger 2001-2017
</metadata>
<g transform="translate(0.000000,512.000000) scale(0.100000,-0.100000)"
fill="#000000" stroke="none">
<path d="M740 4894 c-198 -43 -375 -186 -465 -376 -68 -144 -65 -30 -65 -1958
0 -1939 -4 -1815 68 -1965 91 -188 267 -327 467 -370 105 -22 3525 -22 3630 0
202 43 379 185 470 377 68 144 65 30 65 1958 0 1938 4 1814 -68 1965 -90 186
-268 328 -468 370 -101 21 -3535 21 -3634 -1z m540 -734 l0 -320 -321 0 -321
0 4 223 c4 243 8 262 67 329 34 39 86 68 141 79 19 4 124 7 233 8 l197 1 0
-320z m2130 -530 l0 -850 -850 0 -850 0 0 850 0 850 850 0 850 0 0 -850z m911
828 c53 -23 104 -73 130 -126 22 -44 23 -61 27 -269 l4 -223 -321 0 -321 0 0
321 0 321 223 -4 c174 -3 230 -7 258 -20z m-3041 -1363 l0 -315 -320 0 -320 0
0 315 0 315 320 0 320 0 0 -315z m3200 0 l0 -315 -320 0 -320 0 0 315 0 315
320 0 320 0 0 -315z m-3200 -1070 l0 -315 -320 0 -320 0 0 315 0 315 320 0
320 0 0 -315z m2130 -535 l0 -850 -850 0 -850 0 0 850 0 850 850 0 850 0 0
-850z m1070 535 l0 -315 -320 0 -320 0 0 315 0 315 320 0 320 0 0 -315z
m-3200 -1066 l0 -321 -222 4 c-209 3 -226 4 -270 26 -26 13 -61 40 -79 59 -59
68 -63 87 -67 331 l-4 222 321 0 321 0 0 -321z m3198 99 c-4 -244 -8 -263 -67
-331 -18 -19 -53 -46 -79 -59 -44 -22 -61 -23 -269 -26 l-223 -4 0 321 0 321
321 0 321 0 -4 -222z"/>
</g>
</svg>
