<svg aria-hidden="true" style="position: absolute; width: 0; height: 0; overflow: hidden;" version="1.1"
    xmlns="http://www.w3.org/2000/svg" xmlns:xlink="http://www.w3.org/1999/xlink">
    <defs>
        <symbol id="search" viewBox="0 0 32 32">
            <path fill="none" stroke-linejoin="round" stroke-linecap="round" stroke-miterlimit="4" stroke-width="2.6667"
                d="M14.667 25.333c5.891 0 10.667-4.776 10.667-10.667s-4.776-10.667-10.667-10.667v0c-5.891 0-10.667 4.776-10.667 10.667s4.776 10.667 10.667 10.667v0zM28 28l-5.8-5.8">
            </path>
        </symbol>
        <symbol id="logo" viewBox="0 0 32 32">
            <path fill="none" stroke-linejoin="round" stroke-linecap="round" stroke-miterlimit="4" stroke-width="2.6667"
                d="M26.427 2.667h-20.853c-1.605 0-2.907 1.301-2.907 2.907v0 20.853c0 1.605 1.301 2.907 2.907 2.907v0h20.853c1.605 0 2.907-1.301 2.907-2.907v0-20.853c0-1.605-1.301-2.907-2.907-2.907v0zM9.333 2.667v26.667M22.667 2.667v26.667M2.667 16h26.667M2.667 9.333h6.667M2.667 22.667h6.667M22.667 22.667h6.667M22.667 9.333h6.667">
            </path>
        </symbol>
        <symbol id="heart" viewBox="0 0 34 32">
            <path fill="#ff6b08" style="fill: var(--color2, #ff6b08)"
                d="M17.231 31.705l-2.412-2.412c-8.96-7.926-14.818-13.268-14.818-19.815 0-5.342 4.135-9.477 9.477-9.477 2.929 0 5.858 1.378 7.754 3.618 1.895-2.24 4.825-3.618 7.754-3.618 5.342 0 9.477 4.135 9.477 9.477 0 6.548-5.858 11.889-14.818 19.815l-2.412 2.412z">
            </path>
        </symbol>
        <!-- <symbol id="close" viewBox="0 0 32 32">
<path stroke-linejoin="miter" stroke-linecap="butt" stroke-miterlimit="4" stroke-width="2.1333" d="M8.533 8.533l14.933 14.933M8.533 23.467l14.933-14.933"></path>
</symbol> -->
        <symbol id="close" viewBox="0 0 16 16">
            <path
                d="M15 4.108 13.892 3 9.5 7.392 5.108 3 4 4.108 8.392 8.5 4 12.892 5.108 14 9.5 9.608 13.892 14 15 12.892 10.608 8.5 15 4.108Z" />
        </symbol>
        <symbol id="arrow" viewBox="0 0 24 24">
            <path d="M4 12l1.41 1.41L11 7.83V20h2V7.83l5.58 5.59L20 12l-8-8-8 8z"></path>
        </symbol>
        <symbol id="icon-day" viewBox="0 0 32 32">
            <path
                d="M4 15h-3c-0.552 0-1 0.448-1 1s0.448 1 1 1h3c0.552 0 1-0.448 1-1s-0.448-1-1-1zM16 5c0.552 0 1-0.448 1-1v-3c0-0.552-0.448-1-1-1s-1 0.448-1 1v3c0 0.552 0.448 1 1 1zM25.621 7.78l2.101-2.101c0.387-0.387 0.387-1.014 0-1.401s-1.014-0.387-1.401 0l-2.101 2.101c-0.387 0.387-0.387 1.014 0 1.401s1.014 0.387 1.401 0zM7.41 23.19l-2.101 2.101c-0.387 0.387-0.387 1.014 0 1.401s1.014 0.387 1.401 0l2.101-2.101c0.387-0.387 0.387-1.014 0-1.401s-1.014-0.387-1.401 0zM6.808 8.222c0.391 0.391 1.024 0.391 1.414 0s0.39-1.024 0-1.414l-2.121-2.122c-0.391-0.391-1.024-0.391-1.414 0-0.391 0.391-0.391 1.024 0 1.414l2.121 2.122zM16 27c-0.552 0-1 0.448-1 1v3c0 0.552 0.448 1 1 1s1-0.448 1-1v-3c0-0.552-0.448-1-1-1zM25.192 23.778c-0.391-0.391-1.024-0.391-1.414 0s-0.391 1.024 0 1.414l2.121 2.121c0.391 0.391 1.024 0.391 1.414 0s0.391-1.024 0-1.414l-2.121-2.121zM31 15h-3c-0.552 0-1 0.448-1 1s0.448 1 1 1h3c0.552 0 1-0.448 1-1s-0.448-1-1-1zM16 6.994c-4.974 0-9.006 4.032-9.006 9.006s4.032 9.006 9.006 9.006 9.006-4.032 9.006-9.006-4.032-9.006-9.006-9.006zM16 22.998c-3.865 0-6.998-3.133-6.998-6.998s3.133-6.998 6.998-6.998 6.998 3.133 6.998 6.998-3.133 6.998-6.998 6.998z">
            </path>
        </symbol>
        <symbol id="icon-night" viewBox="0 0 32 32">
            <path
                d="M29.687 23.476c-1.084 0.275-2.197 0.413-3.307 0.413-6.070 0-11.42-4.096-13.010-9.961-1.238-4.571-0.034-9.358 3.223-12.805l1.061-1.123-1.544 0.066c-1.189 0.051-2.368 0.233-3.503 0.54-8.5 2.306-13.541 11.096-11.237 19.597 1.883 6.946 8.218 11.796 15.407 11.796 1.408 0 2.817-0.189 4.188-0.56 3.927-1.065 7.268-3.561 9.408-7.026l0.813-1.316-1.5 0.379zM20.637 30.231c-1.264 0.342-2.563 0.516-3.86 0.516-6.624 0-12.462-4.47-14.197-10.871-2.123-7.834 2.521-15.934 10.355-18.057 0.565-0.153 1.143-0.273 1.727-0.357-2.781 3.635-3.718 8.311-2.502 12.796 1.737 6.41 7.586 10.886 14.22 10.886 0.692 0 1.384-0.050 2.072-0.147-1.957 2.549-4.684 4.385-7.815 5.235zM17.435 8.098l3.074-0.873 0.94-3.052 0.874 3.072 3.054 0.941-3.074 0.874-0.94 3.053-0.873-3.072-3.053-0.942zM24.119 13.359l2.137-0.699 0.575-2.172 0.699 2.135 2.173 0.578-2.136 0.698-0.577 2.172-0.698-2.135-2.173-0.577z">
            </path>
        </symbol>
    </defs>
</svg>